<mxfile host="app.diagrams.net" modified="2023-07-16T19:07:11.423Z" agent="Mozilla/5.0 (X11; Ubuntu; Linux x86_64; rv:107.0) Gecko/20100101 Firefox/107.0" version="21.6.2" etag="qkGI-MaOu-X738KCWvQg" type="github">
  <diagram name="Page-1" id="FwbU8p22JBgRBa8pImTX">
    <mxGraphModel>
      <root>
        <mxCell id="0" />
        <mxCell id="1" parent="0" />
      </root>
    </mxGraphModel>
  </diagram>
</mxfile>
